<mxfile host="app.diagrams.net" modified="2023-03-08T09:12:46.385Z" agent="5.0 (Macintosh; Intel Mac OS X 10_15_7) AppleWebKit/605.1.15 (KHTML, like Gecko) Version/16.1 Safari/605.1.15" etag="GqQTipIi4Hmue48yIuqj" version="21.0.2" type="github">
  <diagram name="第 1 页" id="Bx5x5GGeGaAHuLr5wVTO">
    <mxGraphModel dx="1422" dy="802" grid="1" gridSize="10" guides="1" tooltips="1" connect="1" arrows="1" fold="1" page="1" pageScale="1" pageWidth="827" pageHeight="1169" math="0" shadow="0">
      <root>
        <mxCell id="0" />
        <mxCell id="1" parent="0" />
        <mxCell id="ROCC2tM8ecW9Y_dV9CF5-2" value="" style="ellipse;whiteSpace=wrap;html=1;" vertex="1" parent="1">
          <mxGeometry x="150" y="170" width="120" height="80" as="geometry" />
        </mxCell>
        <mxCell id="ROCC2tM8ecW9Y_dV9CF5-3" value="" style="ellipse;whiteSpace=wrap;html=1;aspect=fixed;" vertex="1" parent="1">
          <mxGeometry x="170" y="350" width="80" height="80" as="geometry" />
        </mxCell>
        <mxCell id="ROCC2tM8ecW9Y_dV9CF5-4" value="" style="ellipse;whiteSpace=wrap;html=1;aspect=fixed;" vertex="1" parent="1">
          <mxGeometry x="490" y="350" width="80" height="80" as="geometry" />
        </mxCell>
      </root>
    </mxGraphModel>
  </diagram>
</mxfile>
